<mxfile host="app.diagrams.net" modified="2024-04-13T13:05:28.413Z" agent="Mozilla/5.0 (iPhone; CPU iPhone OS 17_4 like Mac OS X) AppleWebKit/605.1.15 (KHTML, like Gecko) CriOS/123.0.6312.52 Mobile/15E148 Safari/604.1" version="24.2.5" etag="LZK_nU7SRcNEHw3IzlN2" type="github">
  <diagram name="페이지-1" id="9YlBqnd2GgXIf6Q9OgBf">
    <mxGraphModel>
      <root>
        <mxCell id="0" />
        <mxCell id="1" parent="0" />
      </root>
    </mxGraphModel>
  </diagram>
</mxfile>
